<?xml version="1.0" encoding="UTF-8" standalone="no"?>
<!-- Created with Inkscape (http://www.inkscape.org/) -->

<svg
   xmlns:dc="http://purl.org/dc/elements/1.1/"
   xmlns:cc="http://creativecommons.org/ns#"
   xmlns:rdf="http://www.w3.org/1999/02/22-rdf-syntax-ns#"
   xmlns:svg="http://www.w3.org/2000/svg"
   xmlns="http://www.w3.org/2000/svg"
   xmlns:sodipodi="http://sodipodi.sourceforge.net/DTD/sodipodi-0.dtd"
   xmlns:inkscape="http://www.inkscape.org/namespaces/inkscape"
   width="372.28574"
   height="178.85713"
   id="svg8773"
   version="1.1"
   inkscape:version="0.48.4 r9939"
   sodipodi:docname="logo.png">
  <defs
     id="defs8775" />
  <sodipodi:namedview
     id="base"
     pagecolor="#ffffff"
     bordercolor="#666666"
     borderopacity="1.0"
     inkscape:pageopacity="0.0"
     inkscape:pageshadow="2"
     inkscape:zoom="0.35"
     inkscape:cx="387.25724"
     inkscape:cy="-95.228879"
     inkscape:document-units="px"
     inkscape:current-layer="layer1"
     showgrid="false"
     fit-margin-top="0"
     fit-margin-left="0"
     fit-margin-right="0"
     fit-margin-bottom="0"
     inkscape:window-width="1280"
     inkscape:window-height="962"
     inkscape:window-x="-8"
     inkscape:window-y="32"
     inkscape:window-maximized="1" />
  <metadata
     id="metadata8778">
    <rdf:RDF>
      <cc:Work
         rdf:about="">
        <dc:format>image/svg+xml</dc:format>
        <dc:type
           rdf:resource="http://purl.org/dc/dcmitype/StillImage" />
        <dc:title></dc:title>
      </cc:Work>
    </rdf:RDF>
  </metadata>
  <g
     inkscape:label="Layer 1"
     inkscape:groupmode="layer"
     id="layer1"
     transform="translate(12.257237,-29.70474)">
    <g
       transform="matrix(0.47671676,0,0,0.3523681,99.52236,-231.51201)"
       id="layer1-7"
       inkscape:label="Layer 1">
      <g
         transform="matrix(-0.44870719,0,0,0.46295581,446.19016,576.56613)"
         id="g4248"
         style="display:inline;enable-background:new">
        <g
           id="g4237"
           transform="translate(-40,78)">
          <path
             sodipodi:nodetypes="cccccccccccccccccccccccccccccc"
             id="path3245-7-2"
             d="m 695.43946,578.90669 c 0,0 13.58343,9.02594 25.16393,-1.08568 51.06224,-73.06004 110.48561,-97.25069 141.01415,-167.53912 5.11231,56.64848 -89.41337,117.78863 -89.41337,117.78863 0,0 56.90764,-30.18808 88.15587,-79.92973 -0.61071,39.35435 -86.73243,83.43766 -86.73243,83.43766 0,0 35.82136,-13.9043 83.73196,-56.32585 -2.89363,26.23633 -83.79979,60.69857 -83.79979,60.69857 0,0 52.30668,-22.75756 81.07597,-43.61269 -8.23283,31.18402 -80.14405,49.43907 -80.14405,49.43907 0,0 29.56989,-7.46827 66.24577,-13.15877 -15.88415,19.75132 -66.96354,19.27133 -66.96354,19.27133 0,0 36.06654,3.97369 57.82681,0.66649 1.50185,24.19232 -58.76875,13.6996 -58.76875,13.6996 0,0 34.21746,6.06149 53.44064,13.04778 -3.1276,21.37228 -57.50619,-0.7353 -57.50619,-0.7353 0,0 28.80697,12.34099 45.62501,25.07537 -8.85069,4.0782 -46.97529,-20.42748 -46.97529,-20.42748 0,0 33.92737,22.13764 39.71821,35.05907 -7.34469,4.84457 -41.80684,-29.16324 -41.80684,-29.16324 0,0 29.371,27.47347 34.5353,42.16364 -9.02102,-2.96727 -38.24634,-32.1063 -38.24634,-32.1063 0,0 28.34605,26.60387 30.61027,40.28201 -3.27407,5.06065 -35.61824,-31.58067 -35.61824,-31.58067 0,0 25.9414,27.11983 28.17635,37.53564 -7.27694,0.47189 -35.39469,-30.53912 -35.39469,-30.53912 0,0 18.4503,15.65276 29.041,38.43964 -9.6622,-2.82969 -35.09606,-33.05465 -35.09606,-33.05465 0,0 22.04281,22.23628 28.61599,38.80323 -13.60664,-0.89378 -37.61951,-49.62908 -76.51165,-76.14913 z"
             style="fill:#ffe300;fill-opacity:1;stroke:none;display:inline;enable-background:new"
             inkscape:connector-curvature="0" />
          <path
             sodipodi:nodetypes="ccccccccc"
             id="path2816-6-8-5-0-0"
             d="m 759.34603,720.42747 0,0 z m 0,0 c 34.76927,-43.24073 -56.60322,-120.85916 -10.20681,-125.60425 7.65695,-0.31904 15.46103,-2.1057 23.11678,-4.91698 44.30472,61.81541 59.7902,163.01143 58.58425,360.38399 -11.83773,-176.05142 -29.2953,-198.46662 -47.25889,-213.10776 -8.58349,-5.70372 -16.63185,-11.27669 -24.23533,-16.7317 0.007,-0.004 -0.007,-0.0185 0,-0.0233 z"
             style="fill:#00d0d0;fill-opacity:1;stroke:none;display:inline;enable-background:new"
             inkscape:connector-curvature="0" />
          <path
             sodipodi:nodetypes="ccccc"
             id="path2816-6-6-6"
             d="m 573.64284,529.83059 5.08009,11.32535 -4.68398,7.82988 c -45.27472,27.69752 -97.61707,83.33225 -97.61707,83.33225 0,0 35.43414,-45.4945 97.22096,-102.48748 z"
             style="fill:#ffe300;fill-opacity:1;stroke:none;display:inline;enable-background:new"
             inkscape:connector-curvature="0" />
          <path
             id="path3245-6-4"
             d="m 1033.5781,418.06843 c -11.1855,56.46033 -182.13782,96.40535 -182.13782,96.40535 0,0 100.66647,-17.57728 167.24712,-59.6562 -14.3815,38.35041 -166.19848,63.38471 -166.19848,63.38471 0,0 61.64361,-6.06882 152.19318,-37.49485 -11.54576,21.36172 -115.01167,36.62369 -145.27213,40.66408 19.77998,-2.53606 88.47939,-11.53784 133.17784,-20.20387 -14.8142,17.97675 -85.29897,24.49052 -136.06743,26.84529 39.22663,-0.84858 88.1462,-1.62549 105.14404,-0.7224 -29.8495,18.08849 -114.48863,6.89775 -114.48863,6.89775 0,0 55.91773,11.46184 91.60489,12.79345 -5.85906,23.96901 -98.01327,1.04865 -98.01327,1.04865 0,0 52.29268,13.11525 80.44265,23.97899 -9.7816,16.16095 -59.15196,-3.0542 -78.69491,-11.46517 14.25904,6.54824 43.24616,20.88696 51.52338,32.7643 -15.4467,2.13057 -66.32091,-29.57177 -66.32091,-29.57177 0,0 45.02842,28.51646 49.82224,42.36522 -10.94388,2.62653 -41.70195,-23.09664 -52.4322,-32.43805 9.54205,8.5067 33.87617,31.20172 36.44621,43.62359 -9.98708,-3.59535 -33.01731,-23.96734 -43.90323,-33.92946 10.14792,9.74579 29.78084,30.02291 28.98918,40.31454 -6.87605,0.61664 -28.60802,-20.64102 -39.47563,-31.76226 9.31106,9.92887 25.63353,28.40728 25.63353,36.02674 -6.57828,-0.59802 -21.09164,-13.68569 -32.55458,-25.05094 7.43044,8.75277 15.52785,19.9813 19.76112,31.43602 -8.4335,-2.81116 -22.24588,-15.95016 -32.25163,-26.35592 8.31951,10.29956 18.37834,23.88965 18.2231,29.24552 0,0 -13.74476,-5.84485 -30.76022,-27.10162 6.46688,9.2035 14.70372,22.15875 15.72966,29.73488 0,0 -43.56079,-29.54258 -52.12926,-70.93494 25.10887,-3.27286 33.76871,10.94259 36.70254,19.73781 49.46162,-20.19734 90.4002,-81.37349 37.35503,-65.482 74.79265,-32.53494 152.60871,-58.5183 220.70462,-105.09744 z"
             style="fill:#ffe300;fill-opacity:1;stroke:none;display:inline;enable-background:new"
             inkscape:connector-curvature="0" />
          <path
             id="path3245-6-9-3"
             d="m 643.62233,482.66491 c 22.41122,0.12255 48.53558,14.25573 75.87522,57.5123 8.15192,5.3497 15.78277,11.0366 22.90705,17.17446 22.90297,-12.65779 46.52458,-23.76886 70.46888,-34.1858 54.38926,-16.35442 10.3378,48.05155 -40.61748,66.76367 -7.65575,2.81129 -15.45983,4.59794 -23.11678,4.91698 -46.39641,4.74509 44.97608,82.36353 10.20681,125.60425 C 595.89542,603.18127 650.71513,543.56473 574.03895,548.96252 l 4.68398,-7.80658 -5.08009,-11.32535 c 0,0 28.64325,-47.39171 69.97949,-47.16568 z m -12.81678,21.20591 c -1.06941,-0.0324 -2.17745,0.0944 -3.26245,0.39615 -5.78657,1.60966 -9.15991,7.61275 -7.55023,13.39935 1.60967,5.78659 7.58946,9.18319 13.37603,7.57354 5.78658,-1.60966 9.18318,-7.61275 7.57358,-13.39934 -1.30789,-4.70161 -5.50283,-7.82954 -10.13693,-7.9697 z"
             style="fill:#ff7900;fill-opacity:1;stroke:none;display:inline;enable-background:new"
             inkscape:connector-curvature="0" />
          <path
             id="path3292-3"
             d="m 632.76302,499.3267 c 6.35503,0.19221 12.1185,4.4583 13.91203,10.90589 2.20742,7.93551 -2.43442,16.15551 -10.36994,18.36293 -7.93547,2.20742 -16.1555,-2.43442 -18.36293,-10.36993 -2.20742,-7.9355 2.43442,-16.1555 10.36997,-18.36292 1.4879,-0.41389 2.98437,-0.58033 4.45087,-0.53597 z m -1.98073,4.54412 c -1.06942,-0.0324 -2.15419,0.0944 -3.23919,0.39615 -5.78657,1.60966 -9.18317,7.61275 -7.5735,13.39935 1.6096,5.78659 7.61273,9.15989 13.3993,7.55023 5.78658,-1.60966 9.18318,-7.58944 7.57358,-13.37603 -1.30789,-4.70161 -5.5261,-7.82954 -10.16019,-7.9697 z"
             style="fill:#ffe300;fill-opacity:1;fill-rule:evenodd;stroke:none;display:inline;enable-background:new"
             inkscape:connector-curvature="0" />
          <path
             transform="matrix(-0.71842495,0.19984423,0.19984423,0.71842495,936.58436,110.26641)"
             d="m 556.46778,412.55682 c 0,5.02103 -4.07035,9.09138 -9.09138,9.09138 -5.02102,0 -9.09137,-4.07035 -9.09137,-9.09138 0,-5.02102 4.07035,-9.09137 9.09137,-9.09137 5.02103,0 9.09138,4.07035 9.09138,9.09137 z"
             sodipodi:ry="9.0913725"
             sodipodi:rx="9.0913725"
             sodipodi:cy="412.55682"
             sodipodi:cx="547.3764"
             id="path3296-6"
             style="fill:#ffe300;fill-opacity:1;fill-rule:evenodd;stroke:none;display:inline;enable-background:new"
             sodipodi:type="arc" />
          <path
             sodipodi:nodetypes="cccc"
             id="path3245-6-9-2-1-9"
             d="m 643.62233,482.66491 c 22.41122,0.12255 48.53558,14.25573 75.87522,57.5123 -49.79517,-64.99581 -92.72043,-54.20545 -114.83819,-43.6702 10.84893,-7.83226 24.07679,-13.9235 38.96297,-13.8421 z"
             style="fill:#00d0d0;fill-opacity:1;stroke:none;display:inline;enable-background:new"
             inkscape:connector-curvature="0" />
          <path
             sodipodi:nodetypes="ccc"
             id="path4336-0"
             d="m 716.16519,686.68444 c -66.53806,-57.13461 -79.49872,-97.15123 -94.30807,-118.89294 70.41859,-3.64897 58.5066,65.25906 94.30807,118.89294 z"
             style="fill:#ffe300;fill-opacity:1;stroke:#000000;stroke-width:1.13690138px;stroke-linecap:butt;stroke-linejoin:miter;stroke-opacity:0;display:inline;enable-background:new"
             inkscape:connector-curvature="0" />
        </g>
      </g>
    </g>
    <text
       xml:space="preserve"
       style="font-size:63.20056152px;font-style:normal;font-weight:normal;line-height:125%;letter-spacing:0px;word-spacing:0px;fill:#000000;fill-opacity:1;stroke:none;font-family:Sans"
       x="19.698826"
       y="184.2278"
       id="text3766"
       sodipodi:linespacing="125%"
       transform="scale(0.98986124,1.0102426)"><tspan
         sodipodi:role="line"
         id="tspan3768"
         x="19.698826"
         y="184.2278"
         style="font-size:63.20056152px;font-style:normal;font-variant:normal;font-weight:normal;font-stretch:normal;text-align:start;line-height:125%;writing-mode:lr-tb;text-anchor:start;font-family:Snap ITC;-inkscape-font-specification:Snap ITC"><tspan
           style="fill:#ffd5d5;fill-opacity:1"
           id="tspan3770">B</tspan><tspan
           style="fill:#782121"
           id="tspan3782">i</tspan><tspan
           style="fill:#800080"
           id="tspan3784">r</tspan><tspan
           style="fill:#d40000"
           id="tspan3794">d</tspan><tspan
           style="fill:#ddff55"
           id="tspan3796">F</tspan><tspan
           style="fill:#f4e3d7"
           id="tspan3798">u</tspan><tspan
           style="fill:#80ff80;fill-opacity:1"
           id="tspan3800">n</tspan></tspan></text>
  </g>
</svg>
